<mxfile host="app.diagrams.net" agent="Mozilla/5.0 (Windows NT 10.0; Win64; x64) AppleWebKit/537.36 (KHTML, like Gecko) Chrome/140.0.0.0 Safari/537.36 Edg/140.0.0.0" version="28.2.3">
  <diagram id="Z9iIRakZoQvROT_B5_il" name="ページ1">
    <mxGraphModel dx="884" dy="400" grid="1" gridSize="10" guides="1" tooltips="1" connect="1" arrows="1" fold="1" page="1" pageScale="1" pageWidth="827" pageHeight="1169" math="0" shadow="0">
      <root>
        <mxCell id="0" />
        <mxCell id="1" parent="0" />
        <mxCell id="2" value="Text" style="text;html=1;align=center;verticalAlign=middle;whiteSpace=wrap;rounded=0;" parent="1" vertex="1">
          <mxGeometry x="100" y="200" width="60" height="30" as="geometry" />
        </mxCell>
        <mxCell id="r7WOSrpGjjYcxMmH78dZ-2" value="ユーザ" style="shape=umlActor;verticalLabelPosition=bottom;verticalAlign=top;html=1;outlineConnect=0;" vertex="1" parent="1">
          <mxGeometry x="190" y="210" width="30" height="60" as="geometry" />
        </mxCell>
        <mxCell id="r7WOSrpGjjYcxMmH78dZ-3" value="ブラウザ" style="shape=umlBoundary;whiteSpace=wrap;html=1;" vertex="1" parent="1">
          <mxGeometry x="290" y="130" width="100" height="80" as="geometry" />
        </mxCell>
        <mxCell id="r7WOSrpGjjYcxMmH78dZ-5" value="" style="endArrow=classic;html=1;rounded=0;exitX=1;exitY=0.3333333333333333;exitDx=0;exitDy=0;exitPerimeter=0;entryX=-0.001;entryY=0.578;entryDx=0;entryDy=0;entryPerimeter=0;" edge="1" parent="1" source="r7WOSrpGjjYcxMmH78dZ-2" target="r7WOSrpGjjYcxMmH78dZ-3">
          <mxGeometry width="50" height="50" relative="1" as="geometry">
            <mxPoint x="530" y="250" as="sourcePoint" />
            <mxPoint x="580" y="200" as="targetPoint" />
          </mxGeometry>
        </mxCell>
        <mxCell id="r7WOSrpGjjYcxMmH78dZ-6" value="表示" style="ellipse;shape=umlControl;whiteSpace=wrap;html=1;" vertex="1" parent="1">
          <mxGeometry x="460" y="160" width="70" height="80" as="geometry" />
        </mxCell>
        <mxCell id="r7WOSrpGjjYcxMmH78dZ-7" value="" style="endArrow=classic;html=1;rounded=0;exitX=1.008;exitY=0.549;exitDx=0;exitDy=0;exitPerimeter=0;entryX=0;entryY=0.5;entryDx=0;entryDy=0;entryPerimeter=0;" edge="1" parent="1" source="r7WOSrpGjjYcxMmH78dZ-3" target="r7WOSrpGjjYcxMmH78dZ-6">
          <mxGeometry width="50" height="50" relative="1" as="geometry">
            <mxPoint x="400" y="283.76" as="sourcePoint" />
            <mxPoint x="470" y="229.76" as="targetPoint" />
          </mxGeometry>
        </mxCell>
        <mxCell id="r7WOSrpGjjYcxMmH78dZ-8" value="ログイン画面" style="shape=umlBoundary;whiteSpace=wrap;html=1;" vertex="1" parent="1">
          <mxGeometry x="290" y="260" width="100" height="80" as="geometry" />
        </mxCell>
        <mxCell id="r7WOSrpGjjYcxMmH78dZ-9" value="" style="endArrow=classic;html=1;rounded=0;exitX=0.286;exitY=1;exitDx=0;exitDy=0;exitPerimeter=0;entryX=1.019;entryY=0.332;entryDx=0;entryDy=0;entryPerimeter=0;" edge="1" parent="1" source="r7WOSrpGjjYcxMmH78dZ-6" target="r7WOSrpGjjYcxMmH78dZ-8">
          <mxGeometry width="50" height="50" relative="1" as="geometry">
            <mxPoint x="379.2" y="244" as="sourcePoint" />
            <mxPoint x="448.2" y="270" as="targetPoint" />
          </mxGeometry>
        </mxCell>
        <mxCell id="r7WOSrpGjjYcxMmH78dZ-10" value="ユーザ認証" style="ellipse;shape=umlControl;whiteSpace=wrap;html=1;" vertex="1" parent="1">
          <mxGeometry x="510" y="260" width="70" height="80" as="geometry" />
        </mxCell>
        <mxCell id="r7WOSrpGjjYcxMmH78dZ-11" value="" style="endArrow=classic;html=1;rounded=0;entryX=0;entryY=0.5;entryDx=0;entryDy=0;entryPerimeter=0;exitX=0.979;exitY=0.533;exitDx=0;exitDy=0;exitPerimeter=0;" edge="1" target="r7WOSrpGjjYcxMmH78dZ-10" parent="1" source="r7WOSrpGjjYcxMmH78dZ-8">
          <mxGeometry width="50" height="50" relative="1" as="geometry">
            <mxPoint x="430" y="390" as="sourcePoint" />
            <mxPoint x="559.2" y="329.76" as="targetPoint" />
          </mxGeometry>
        </mxCell>
        <mxCell id="r7WOSrpGjjYcxMmH78dZ-12" value="ユーザ" style="ellipse;shape=umlEntity;whiteSpace=wrap;html=1;" vertex="1" parent="1">
          <mxGeometry x="690" y="270" width="80" height="80" as="geometry" />
        </mxCell>
        <mxCell id="r7WOSrpGjjYcxMmH78dZ-13" value="" style="endArrow=block;startArrow=block;endFill=1;startFill=1;html=1;rounded=0;exitX=1.005;exitY=0.634;exitDx=0;exitDy=0;exitPerimeter=0;entryX=0;entryY=0.5;entryDx=0;entryDy=0;" edge="1" parent="1" source="r7WOSrpGjjYcxMmH78dZ-10" target="r7WOSrpGjjYcxMmH78dZ-12">
          <mxGeometry width="160" relative="1" as="geometry">
            <mxPoint x="620" y="210" as="sourcePoint" />
            <mxPoint x="690" y="310" as="targetPoint" />
          </mxGeometry>
        </mxCell>
      </root>
    </mxGraphModel>
  </diagram>
</mxfile>
